<svg width="1100" height="1100" viewBox="0 0 1100 1100" fill="none" xmlns="http://www.w3.org/2000/svg">
<path fill-rule="evenodd" clip-rule="evenodd" d="M686.116 304C695.73 304 702.139 310.393 702.139 319.982V323.178L679.706 425.462C679.706 428.659 682.911 435.052 686.116 435.052C686.116 435.052 686.116 435.052 689.32 435.052H894.421C904.035 435.052 913.403 441.444 910.445 454.23L862.374 655.603C859.17 665.192 852.76 668.388 843.146 668.388L730.982 661.996C695.73 661.996 657.273 671.585 628.431 703.549C589.975 741.905 586.77 799.44 602.793 840.993C618.817 882.546 663.683 904.921 708.549 895.331C743.8 888.939 763.028 853.779 759.824 825.011C756.619 793.047 743.8 783.458 724.572 783.458C705.344 783.458 698.934 793.047 698.934 802.636C698.934 812.226 702.139 818.618 708.549 825.011C718.163 834.6 698.934 863.368 673.297 847.386C657.273 837.797 647.659 818.618 650.864 789.851C654.069 754.691 682.911 722.727 734.186 722.727C785.461 722.727 823.918 754.691 833.532 802.636C849.555 863.368 817.508 936.884 743.8 975.241C654.069 1023.19 503.448 1019.99 420.124 930.492C372.054 879.35 356.03 812.226 359.235 751.494C359.235 732.316 362.44 709.941 368.849 690.763C368.849 684.37 365.644 677.978 359.235 674.781H356.03H215.023C205.409 674.781 199 665.192 199 655.603V652.407L243.866 457.426C247.07 444.641 256.685 438.248 269.503 438.248H407.305C413.715 435.052 420.124 431.855 423.329 422.266L445.762 323.178C448.967 310.393 461.787 304 471.401 304H686.116Z" fill="#2AC277"/>
</svg>
